<?xml version="1.0" standalone="no"?>
<!DOCTYPE svg PUBLIC "-//W3C//DTD SVG 20010904//EN"
 "http://www.w3.org/TR/2001/REC-SVG-20010904/DTD/svg10.dtd">
<svg version="1.0" xmlns="http://www.w3.org/2000/svg"
 width="849.000000pt" height="583.000000pt" viewBox="0 0 849.000000 583.000000"
 preserveAspectRatio="xMidYMid meet">

<g transform="translate(0.000000,583.000000) scale(0.100000,-0.100000)"
fill="#FFFFFF" stroke="none">
<path d="M3906 5819 c-276 -36 -542 -166 -741 -364 -176 -174 -286 -367 -352
-617 l-28 -103 -3 -1377 -3 -1378 236 0 235 0 0 600 0 600 830 0 830 0 0 -600
0 -600 235 0 236 0 -4 1363 c-3 1232 -5 1369 -20 1437 -43 190 -121 369 -225
513 -76 107 -249 269 -355 336 -259 160 -570 228 -871 190z m369 -453 c90 -24
232 -98 307 -160 142 -118 247 -282 295 -464 l27 -97 4 -512 4 -513 -831 0
-831 0 0 493 c0 441 2 501 19 582 72 345 335 614 672 685 63 13 263 5 334 -14z"/>
<path d="M0 3879 l0 -1900 723 4 c690 3 726 5 807 24 273 67 490 205 645 411
140 187 213 381 230 617 27 355 -150 742 -430 945 -47 35 -85 66 -85 71 0 5
20 31 44 58 101 114 184 266 228 416 20 70 23 101 22 250 -1 154 -3 178 -27
258 -56 184 -135 317 -261 443 -180 179 -383 273 -636 294 -63 5 -373 10 -687
10 l-573 0 0 -1901z m1260 1450 c300 -48 516 -383 445 -688 -37 -155 -153
-305 -285 -369 -117 -57 -168 -63 -577 -60 l-368 3 -3 550 c-1 303 0 556 3
563 6 16 687 17 785 1z m155 -1574 c115 -24 226 -85 314 -174 137 -137 191
-261 199 -452 5 -141 -9 -205 -75 -339 -88 -179 -260 -316 -448 -355 -55 -12
-162 -15 -502 -15 l-433 0 0 675 0 675 438 0 c345 0 452 -3 507 -15z"/>
<path d="M5950 3881 l0 -1901 235 0 235 0 2 628 3 627 450 2 450 3 295 -620
295 -620 264 0 c206 0 262 3 258 13 -3 6 -147 308 -322 671 -174 362 -315 659
-313 660 2 1 41 24 88 50 378 216 578 569 597 1051 10 258 -32 468 -137 680
-170 347 -472 557 -910 632 -67 12 -235 16 -787 20 l-703 5 0 -1901z m1335
1449 c311 -35 539 -185 650 -425 81 -175 102 -403 58 -625 -69 -350 -331 -565
-732 -600 -64 -6 -278 -9 -476 -8 l-360 3 -3 833 -2 832 387 0 c214 0 429 -5
478 -10z"/>
<path d="M1038 761 c-112 -36 -181 -157 -143 -248 30 -71 85 -112 215 -159
135 -48 210 -114 210 -183 0 -43 -29 -92 -73 -125 -24 -18 -43 -21 -120 -21
-128 0 -171 25 -244 141 -10 16 -12 9 -12 -43 -1 -58 1 -63 27 -77 39 -20 171
-46 235 -46 107 0 190 51 223 137 44 114 -37 218 -216 278 -143 47 -215 114
-207 187 12 95 93 155 198 145 88 -8 128 -33 164 -102 l30 -59 3 53 c2 30 1
59 -2 66 -14 38 -221 77 -288 56z"/>
<path d="M3365 760 c-3 -5 1 -10 9 -10 8 0 22 -7 30 -16 14 -13 16 -52 16
-268 0 -299 6 -331 74 -394 54 -50 107 -66 211 -66 127 0 206 37 245 114 18
36 20 59 20 304 0 284 4 308 49 325 20 7 6 9 -59 9 -47 0 -76 -3 -65 -5 11 -3
28 -12 38 -21 15 -14 17 -41 17 -289 0 -303 -3 -322 -61 -365 -49 -36 -92 -48
-173 -47 -106 1 -157 25 -198 94 -22 39 -23 47 -26 308 -3 232 -1 272 13 293
8 13 22 24 30 24 8 0 15 5 15 10 0 6 -36 10 -89 10 -50 0 -93 -4 -96 -10z"/>
<path d="M7137 760 c-168 -43 -278 -190 -278 -373 0 -122 36 -211 117 -289
107 -102 292 -126 439 -57 138 65 222 238 196 404 -31 192 -164 313 -354 321
-45 2 -99 -1 -120 -6z m232 -46 c62 -33 96 -70 128 -141 96 -208 13 -475 -167
-538 -54 -19 -136 -19 -190 0 -205 72 -276 403 -130 602 81 110 238 144 359
77z"/>
<path d="M2028 698 c-3 -35 -4 -65 -2 -66 1 -2 14 14 28 37 41 64 65 75 178
79 l98 4 0 -348 c0 -192 -4 -354 -8 -360 -4 -6 -16 -16 -27 -22 -16 -9 -1 -11
75 -11 67 0 88 3 72 9 -12 5 -27 21 -32 36 -6 16 -9 154 -8 358 l3 331 96 0
c114 0 140 -11 181 -74 l28 -45 0 45 c0 24 -3 54 -6 67 l-6 22 -333 0 -333 0
-4 -62z"/>
<path d="M4700 753 c8 -3 23 -12 33 -21 16 -14 17 -43 17 -347 0 -304 -1 -333
-17 -347 -10 -9 -25 -18 -33 -21 -8 -3 76 -6 187 -6 180 -1 208 1 257 19 217
82 291 391 142 593 -32 44 -108 95 -172 117 -49 17 -83 20 -243 19 -102 0
-179 -3 -171 -6z m401 -35 c178 -82 249 -318 156 -521 -33 -73 -73 -116 -132
-143 -44 -21 -65 -24 -177 -24 l-128 0 0 361 0 362 113 -5 c93 -3 121 -8 168
-30z"/>
<path d="M6043 744 l27 -15 0 -337 c0 -185 -4 -342 -8 -348 -4 -6 -16 -16 -27
-22 -16 -9 -1 -11 75 -11 90 0 94 1 68 15 l-28 15 0 344 0 344 28 15 c26 14
22 15 -68 15 -90 0 -94 -1 -67 -15z"/>
</g>
</svg>
